<?xml version="1.0" standalone="no"?>
<!DOCTYPE svg PUBLIC "-//W3C//DTD SVG 20010904//EN"
 "http://www.w3.org/TR/2001/REC-SVG-20010904/DTD/svg10.dtd">
<svg version="1.0" xmlns="http://www.w3.org/2000/svg"
 width="962.000000pt" height="306.000000pt" viewBox="0 0 962.000000 306.000000"
 preserveAspectRatio="xMidYMid meet">

<g transform="translate(0.000000,306.000000) scale(0.100000,-0.100000)"
fill="#000000" stroke="none">
<path d="M1303 2673 c15 -2 39 -2 55 0 15 2 2 4 -28 4 -30 0 -43 -2 -27 -4z"/>
<path d="M1140 2660 c-16 -4 6 -7 56 -6 45 1 80 4 77 9 -5 9 -100 8 -133 -3z"/>
<path d="M1288 2640 c-2 -6 -44 -18 -93 -26 -141 -25 -145 -26 -145 -34 0 -4
30 -1 68 6 169 35 290 40 447 19 33 -5 31 -3 -15 11 -30 8 -94 16 -142 17 -48
1 -88 5 -88 10 0 11 -28 8 -32 -3z"/>
<path d="M980 2620 c-21 -7 -21 -8 -5 -9 11 0 27 4 35 9 18 11 5 11 -30 0z"/>
<path d="M918 2593 c7 -3 16 -2 19 1 4 3 -2 6 -13 5 -11 0 -14 -3 -6 -6z"/>
<path d="M1675 2581 c39 -10 93 -26 120 -35 57 -18 67 -19 43 -6 -27 17 -140
49 -188 54 -36 4 -30 2 25 -13z"/>
<path d="M1808 2593 c7 -3 16 -2 19 1 4 3 -2 6 -13 5 -11 0 -14 -3 -6 -6z"/>
<path d="M990 2560 c-13 -9 -13 -10 0 -10 8 0 22 5 30 10 13 9 13 10 0 10 -8
0 -22 -5 -30 -10z"/>
<path d="M926 2540 c-18 -19 -18 -19 13 -7 17 6 31 15 31 19 0 14 -25 7 -44
-12z"/>
<path d="M1870 2520 c8 -5 20 -10 25 -10 6 0 3 5 -5 10 -8 5 -19 10 -25 10 -5
0 -3 -5 5 -10z"/>
<path d="M1910 2504 c0 -4 87 -44 96 -44 2 0 4 4 4 8 0 5 -22 15 -50 24 -27 9
-50 14 -50 12z"/>
<path d="M2071 2472 c0 -7 -7 -12 -13 -11 -44 5 -30 -9 71 -70 62 -38 124 -79
137 -92 13 -12 24 -19 24 -14 0 5 -21 29 -47 53 -27 24 -37 36 -23 28 13 -9
36 -16 50 -16 15 0 20 -3 13 -8 -9 -5 -6 -12 10 -21 19 -12 20 -12 10 0 -6 8
-12 19 -12 24 0 6 -12 11 -25 13 -18 2 -23 8 -20 20 5 15 4 15 -5 2 -10 -13
-15 -8 -12 12 0 4 -7 4 -16 1 -11 -4 -14 -3 -9 6 5 7 -6 17 -31 26 -21 9 -46
20 -56 26 -10 5 -22 7 -27 4 -5 -3 -11 3 -13 12 -3 10 -5 12 -6 5z"/>
<path d="M756 2455 c-11 -8 -15 -15 -10 -15 6 0 19 7 30 15 10 8 15 14 9 14
-5 0 -19 -6 -29 -14z"/>
<path d="M5978 2339 c3 -24 0 -36 -14 -47 -18 -13 -18 -14 1 -10 15 2 21 12
23 37 2 18 -1 38 -6 43 -5 5 -7 -4 -4 -23z"/>
<path d="M6711 2344 c0 -11 3 -14 6 -6 3 7 2 16 -1 19 -3 4 -6 -2 -5 -13z"/>
<path d="M563 2315 c-20 -19 -41 -35 -46 -35 -6 0 -7 -3 -4 -7 4 -3 0 -15 -10
-25 -9 -10 -12 -18 -8 -18 5 0 30 23 56 50 26 28 52 50 58 50 5 0 13 5 16 10
15 25 -29 7 -62 -25z"/>
<path d="M3170 2323 c1 -16 8 -39 16 -53 l15 -25 -5 34 c-3 18 -6 42 -6 52 0
11 -4 19 -10 19 -5 0 -10 -12 -10 -27z"/>
<path d="M2308 2275 c6 -11 21 -29 34 -40 22 -19 22 -19 -2 10 -40 48 -43 51
-32 30z"/>
<path d="M456 2271 c-3 -5 1 -11 9 -14 9 -4 12 -1 8 9 -6 16 -10 17 -17 5z"/>
<path d="M427 2237 c-3 -8 1 -14 8 -14 7 0 11 6 8 14 -3 7 -6 13 -8 13 -2 0
-5 -6 -8 -13z"/>
<path d="M2404 2224 c2 -11 -3 -21 -10 -24 -15 -6 81 -127 97 -122 6 1 8 -1 5
-6 -6 -9 58 -112 78 -124 6 -4 8 -8 3 -8 -4 0 4 -19 19 -41 57 -91 118 -245
147 -374 13 -54 12 -66 -4 -115 -9 -30 -31 -82 -47 -116 -40 -81 -49 -141 -27
-187 9 -19 52 -70 96 -113 89 -88 167 -182 194 -233 24 -48 13 -96 -28 -121
-19 -12 -25 -20 -16 -20 33 0 84 44 87 76 6 58 -31 114 -156 241 -66 67 -133
142 -147 168 -33 56 -30 94 16 193 17 37 38 84 46 107 33 91 4 250 -79 433
-15 35 -28 65 -28 67 0 5 -71 117 -105 164 -33 47 -80 103 -71 85 3 -7 -1 -17
-9 -24 -13 -11 -15 -9 -13 10 2 13 -3 25 -11 28 -10 3 -11 0 -5 -9 7 -12 5
-12 -9 0 -12 9 -14 17 -7 26 5 6 6 16 2 20 -4 5 -1 5 6 1 7 -4 10 -12 7 -17
-4 -5 -1 -9 4 -9 18 0 13 15 -13 39 -22 21 -24 21 -22 5z m87 -127 c-10 -9
-11 -8 -5 6 3 10 9 15 12 12 3 -3 0 -11 -7 -18z m49 -67 c6 -11 7 -20 2 -20
-6 0 -12 9 -15 20 -3 11 -3 20 -1 20 2 0 8 -9 14 -20z"/>
<path d="M447 2195 c-15 -19 -27 -36 -27 -39 0 -3 -10 -16 -23 -30 -12 -13
-38 -52 -57 -86 -19 -34 -43 -71 -53 -83 l-18 -22 6 23 c4 13 2 22 -4 22 -6 0
-11 -6 -11 -14 0 -8 -4 -16 -10 -18 -5 -1 -11 -20 -12 -40 -2 -21 -7 -38 -11
-38 -5 0 -5 -5 -1 -12 4 -7 3 -8 -4 -4 -8 5 -8 15 -1 34 8 20 7 24 -1 16 -7
-7 -13 -25 -13 -40 -1 -16 -6 -32 -12 -36 -6 -5 -5 -8 3 -8 20 0 14 -17 -9
-23 -18 -5 -20 -11 -15 -33 6 -21 4 -25 -8 -21 -9 4 -16 2 -16 -3 0 -6 5 -10
10 -10 6 0 10 -7 10 -16 0 -10 -6 -14 -14 -11 -19 8 -40 -71 -24 -90 6 -8 8
-16 4 -20 -3 -3 -6 -1 -6 5 0 29 -18 8 -23 -25 -3 -21 -11 -58 -18 -83 -8 -29
-12 -118 -13 -250 0 -201 0 -208 33 -335 59 -232 156 -455 197 -455 15 0 19
16 6 22 -15 5 -79 148 -112 248 -60 180 -83 316 -84 495 0 114 5 188 18 259
40 219 135 448 253 610 32 43 63 86 68 95 6 8 16 21 24 27 8 6 10 13 5 17 -6
3 -22 -10 -37 -28z m-247 -414 c0 -6 -4 -13 -10 -16 -5 -3 -10 1 -10 9 0 9 5
16 10 16 6 0 10 -4 10 -9z m-90 -383 c0 -18 -2 -20 -9 -8 -6 8 -7 18 -5 22 9
14 14 9 14 -14z m-13 -75 c-3 -10 -5 -4 -5 12 0 17 2 24 5 18 2 -7 2 -21 0
-30z m-5 -138 c-2 -14 -6 -25 -8 -25 -2 0 -4 11 -4 25 0 14 4 25 9 25 4 0 6
-11 3 -25z"/>
<path d="M3212 2195 c0 -16 2 -22 5 -12 2 9 2 23 0 30 -3 6 -5 -1 -5 -18z"/>
<path d="M389 2193 c-13 -16 -12 -17 4 -4 9 7 17 15 17 17 0 8 -8 3 -21 -13z"/>
<path d="M3481 2184 c0 -11 3 -14 6 -6 3 7 2 16 -1 19 -3 4 -6 -2 -5 -13z"/>
<path d="M3411 2172 c-6 -12 -11 -27 -11 -34 0 -7 7 0 15 16 9 16 13 31 11 33
-2 3 -9 -4 -15 -15z"/>
<path d="M5756 2182 c-3 -6 -1 -14 5 -17 15 -10 25 3 12 16 -7 7 -13 7 -17 1z"/>
<path d="M3070 2032 c0 -90 4 -152 10 -152 10 0 6 287 -4 298 -3 3 -6 -63 -6
-146z"/>
<path d="M5493 2165 c-3 -9 -3 -18 -1 -21 3 -3 8 4 11 16 6 23 -1 27 -10 5z"/>
<path d="M5978 2140 c2 -22 6 -40 8 -40 2 0 4 18 4 40 0 22 -3 40 -8 40 -4 0
-6 -18 -4 -40z"/>
<path d="M3150 2156 c0 -18 32 -147 36 -143 5 5 -22 136 -30 144 -3 4 -6 3 -6
-1z"/>
<path d="M3472 2140 c0 -14 2 -19 5 -12 2 6 2 18 0 25 -3 6 -5 1 -5 -13z"/>
<path d="M3859 2143 c-13 -16 -12 -17 4 -4 9 7 17 15 17 17 0 8 -8 3 -21 -13z"/>
<path d="M4985 2150 c-3 -6 1 -7 9 -4 18 7 21 14 7 14 -6 0 -13 -4 -16 -10z"/>
<path d="M7626 2115 c-9 -25 -7 -32 5 -15 9 13 10 13 6 0 -4 -18 -53 -20 -49
-2 1 7 -2 12 -8 12 -5 0 -10 -4 -10 -10 0 -5 -5 -10 -11 -10 -5 0 -7 5 -4 10
3 6 -2 10 -12 10 -16 -1 -15 -3 6 -20 12 -11 27 -18 31 -15 5 3 10 0 12 -6 2
-7 12 -7 31 0 28 11 33 26 18 49 -7 11 -10 10 -15 -3z"/>
<path d="M820 2105 c0 -8 2 -15 4 -15 2 0 6 7 10 15 3 8 1 15 -4 15 -6 0 -10
-7 -10 -15z"/>
<path d="M1135 2110 c-3 -5 -2 -10 4 -10 5 0 13 5 16 10 3 6 2 10 -4 10 -5 0
-13 -4 -16 -10z"/>
<path d="M5746 2105 c-19 -15 -19 -15 2 -15 13 0 22 6 22 15 0 18 0 18 -24 0z"/>
<path d="M7049 2103 c-13 -16 -12 -17 4 -4 16 13 21 21 13 21 -2 0 -10 -8 -17
-17z"/>
<path d="M3455 2070 c-4 -23 -5 -43 -2 -46 2 -3 7 14 11 37 4 23 5 44 2 46 -2
2 -7 -14 -11 -37z"/>
<path d="M3388 2095 c-3 -6 -8 -26 -12 -45 l-6 -35 16 34 c14 30 16 68 2 46z"/>
<path d="M3810 2080 c0 -11 6 -20 14 -20 9 0 12 7 9 20 -3 11 -9 20 -14 20 -5
0 -9 -9 -9 -20z"/>
<path d="M306 2075 c-9 -26 -7 -32 5 -12 6 10 9 21 6 23 -2 3 -7 -2 -11 -11z"/>
<path d="M4195 2081 c-3 -5 -1 -12 5 -16 5 -3 10 1 10 9 0 18 -6 21 -15 7z"/>
<path d="M5618 2068 c-22 -17 -38 -81 -37 -148 1 -52 2 -50 15 34 8 52 21 97
30 107 20 22 15 25 -8 7z"/>
<path d="M1085 2060 c-3 -6 1 -7 9 -4 18 7 21 14 7 14 -6 0 -13 -4 -16 -10z"/>
<path d="M2175 2060 c-3 -6 1 -7 9 -4 18 7 21 14 7 14 -6 0 -13 -4 -16 -10z"/>
<path d="M3252 2055 c0 -11 4 -31 8 -45 l8 -25 0 25 c0 14 -3 34 -8 45 l-9 20
1 -20z"/>
<path d="M1960 2043 c0 -13 5 -23 10 -23 13 0 13 11 0 30 -8 12 -10 11 -10 -7z"/>
<path d="M5236 2045 c4 -8 11 -15 16 -15 6 0 5 6 -2 15 -7 8 -14 15 -16 15 -2
0 -1 -7 2 -15z"/>
<path d="M5975 2047 c-4 -10 -5 -21 -1 -24 10 -10 18 4 13 24 -4 17 -4 17 -12
0z"/>
<path d="M6811 2044 c0 -11 3 -14 6 -6 3 7 2 16 -1 19 -3 4 -6 -2 -5 -13z"/>
<path d="M300 2031 c0 -7 -5 -9 -12 -5 -7 4 -10 4 -6 -1 4 -4 0 -14 -10 -21
-9 -7 -12 -14 -6 -14 15 0 49 39 41 47 -4 3 -7 1 -7 -6z"/>
<path d="M6870 2029 c0 -5 5 -7 10 -4 6 3 10 8 10 11 0 2 -4 4 -10 4 -5 0 -10
-5 -10 -11z"/>
<path d="M4904 1996 c-3 -21 -4 -39 -1 -42 2 -3 8 11 11 32 4 20 5 38 2 41 -2
3 -8 -11 -12 -31z"/>
<path d="M3434 1970 c-4 -22 -11 -43 -15 -46 -5 -3 -9 -17 -8 -32 0 -25 1 -25
13 8 16 43 29 110 22 110 -3 0 -9 -18 -12 -40z"/>
<path d="M3543 1960 c0 -30 2 -43 4 -27 2 15 2 39 0 55 -2 15 -4 2 -4 -28z"/>
<path d="M4990 1990 c0 -5 5 -10 10 -10 6 0 10 5 10 10 0 6 -4 10 -10 10 -5 0
-10 -4 -10 -10z"/>
<path d="M560 1974 c0 -8 5 -12 10 -9 6 4 8 11 5 16 -9 14 -15 11 -15 -7z"/>
<path d="M4637 1983 c-4 -3 -7 -11 -7 -17 0 -6 5 -5 12 2 6 6 9 14 7 17 -3 3
-9 2 -12 -2z"/>
<path d="M3200 1947 c4 -19 13 -42 19 -53 11 -17 12 -17 6 6 -3 14 -8 37 -11
53 -4 15 -10 27 -14 27 -4 0 -5 -15 0 -33z"/>
<path d="M3272 1951 c1 -16 5 -28 9 -26 6 5 0 55 -7 55 -3 0 -3 -13 -2 -29z"/>
<path d="M4406 1967 c3 -10 9 -15 12 -12 3 3 0 11 -7 18 -10 9 -11 8 -5 -6z"/>
<path d="M6230 1934 c0 -27 5 -56 10 -64 6 -9 7 6 3 45 -7 75 -13 84 -13 19z"/>
<path d="M1965 1953 c11 -3 28 -14 37 -26 21 -28 32 -18 12 11 -10 14 -25 22
-42 21 -21 -1 -22 -2 -7 -6z"/>
<path d="M5023 1953 c15 -2 39 -2 55 0 15 2 2 4 -28 4 -30 0 -43 -2 -27 -4z"/>
<path d="M2040 1890 c0 -58 -1 -62 -15 -44 -8 10 -15 14 -15 7 0 -13 27 -43
40 -43 7 0 2 130 -6 139 -2 2 -4 -24 -4 -59z"/>
<path d="M4008 1939 c-2 -5 -18 -11 -35 -11 -18 -1 -30 -4 -28 -8 3 -4 -5 -10
-17 -13 -12 -4 -20 -9 -17 -11 8 -8 103 30 107 43 2 6 1 11 -1 11 -3 0 -7 -5
-9 -11z"/>
<path d="M4706 1935 c-9 -26 -7 -32 5 -12 6 10 9 21 6 23 -2 3 -7 -2 -11 -11z"/>
<path d="M2376 1925 c-9 -26 -7 -32 5 -12 6 10 9 21 6 23 -2 3 -7 -2 -11 -11z"/>
<path d="M3351 1924 c0 -11 3 -14 6 -6 3 7 2 16 -1 19 -3 4 -6 -2 -5 -13z"/>
<path d="M4510 1928 c0 -9 5 -20 10 -23 13 -8 13 5 0 25 -8 13 -10 13 -10 -2z"/>
<path d="M5328 1918 c-15 -15 -16 -18 -3 -18 9 0 18 7 22 15 8 23 0 24 -19 3z"/>
<path d="M2170 1872 c-40 -54 -50 -72 -28 -54 10 8 19 9 22 3 3 -5 0 -12 -6
-14 -8 -3 -6 -6 5 -6 20 -1 22 10 5 28 -11 11 -9 12 10 6 16 -5 22 -2 22 9 0
9 6 16 13 16 6 0 4 5 -6 11 -18 10 -18 12 -1 30 9 10 13 19 8 19 -5 -1 -25
-22 -44 -48z m24 -17 c-4 -8 -11 -12 -17 -8 -8 5 -7 8 1 11 7 2 9 9 6 14 -4 7
-2 8 4 4 6 -4 9 -13 6 -21z"/>
<path d="M4902 1895 c0 -16 2 -22 5 -12 2 9 2 23 0 30 -3 6 -5 -1 -5 -18z"/>
<path d="M5068 1913 c12 -2 30 -2 40 0 9 3 -1 5 -23 4 -22 0 -30 -2 -17 -4z"/>
<path d="M5248 1913 c6 -2 18 -2 25 0 6 3 1 5 -13 5 -14 0 -19 -2 -12 -5z"/>
<path d="M1426 1893 c-6 -14 -5 -15 5 -6 7 7 10 15 7 18 -3 3 -9 -2 -12 -12z"/>
<path d="M4430 1901 c0 -6 4 -13 10 -16 6 -3 7 1 4 9 -7 18 -14 21 -14 7z"/>
<path d="M962 1880 c0 -14 2 -19 5 -12 2 6 2 18 0 25 -3 6 -5 1 -5 -13z"/>
<path d="M6836 1883 c-6 -14 -5 -15 5 -6 7 7 10 15 7 18 -3 3 -9 -2 -12 -12z"/>
<path d="M2290 1860 c13 -23 20 -26 20 -6 0 8 -7 16 -15 20 -13 4 -14 2 -5
-14z"/>
<path d="M4676 1865 c-9 -26 -7 -32 5 -12 6 10 9 21 6 23 -2 3 -7 -2 -11 -11z"/>
<path d="M7660 1866 c0 -8 5 -18 10 -21 6 -3 10 1 10 9 0 8 -4 18 -10 21 -5 3
-10 -1 -10 -9z"/>
<path d="M3231 1854 c0 -11 3 -14 6 -6 3 7 2 16 -1 19 -3 4 -6 -2 -5 -13z"/>
<path d="M675 1851 c-3 -5 -2 -12 3 -15 5 -3 9 1 9 9 0 17 -3 19 -12 6z"/>
<path d="M3077 1810 c3 -30 7 -57 9 -59 9 -10 3 85 -6 99 -6 10 -7 -3 -3 -40z"/>
<path d="M4450 1855 c0 -5 5 -17 10 -25 5 -8 10 -10 10 -5 0 6 -5 17 -10 25
-5 8 -10 11 -10 5z"/>
<path d="M5583 1805 c0 -33 2 -45 4 -27 2 18 2 45 0 60 -2 15 -4 0 -4 -33z"/>
<path d="M3793 1805 c0 -27 2 -38 4 -22 2 15 2 37 0 50 -2 12 -4 0 -4 -28z"/>
<path d="M961 1824 c0 -11 3 -14 6 -6 3 7 2 16 -1 19 -3 4 -6 -2 -5 -13z"/>
<path d="M3396 1823 c-11 -43 -17 -87 -8 -73 5 8 12 32 15 53 6 38 2 50 -7 20z"/>
<path d="M6565 1815 c0 -13 3 -21 8 -18 4 2 7 10 7 18 0 8 -3 16 -7 18 -5 3
-8 -5 -8 -18z"/>
<path d="M7661 1817 c-6 -8 -14 -28 -17 -45 -5 -22 -11 -29 -23 -25 -13 4 -14
3 -1 -5 20 -15 37 1 50 46 11 40 8 49 -9 29z"/>
<path d="M1201 1798 c-14 -23 -14 -23 8 -4 22 20 25 26 13 26 -4 0 -13 -10
-21 -22z"/>
<path d="M2366 1804 c-5 -14 -4 -15 9 -4 17 14 19 20 6 20 -5 0 -12 -7 -15
-16z"/>
<path d="M2991 1757 c-1 -53 2 -69 14 -74 23 -8 30 4 14 23 -8 9 -17 40 -20
68 l-6 51 -2 -68z"/>
<path d="M5303 1802 c16 -7 16 -9 1 -30 -8 -12 -19 -20 -23 -18 -3 3 -7 -5 -7
-16 0 -18 4 -16 28 11 34 38 36 61 6 60 -19 0 -20 -2 -5 -7z"/>
<path d="M2330 1790 c0 -5 5 -10 11 -10 5 0 7 5 4 10 -3 6 -8 10 -11 10 -2 0
-4 -4 -4 -10z"/>
<path d="M3241 1784 c0 -11 3 -14 6 -6 3 7 2 16 -1 19 -3 4 -6 -2 -5 -13z"/>
<path d="M1861 1787 c2 -1 15 -11 29 -22 l25 -20 -19 23 c-11 12 -24 22 -29
22 -6 0 -8 -1 -6 -3z"/>
<path d="M2430 1781 c14 -4 26 -12 26 -19 1 -7 2 -17 3 -24 1 -9 4 -9 12 -1 6
6 8 20 4 32 -5 16 -14 21 -38 20 -30 -1 -30 -1 -7 -8z"/>
<path d="M4480 1783 c0 -5 5 -15 10 -23 8 -12 10 -11 10 8 0 12 -4 22 -10 22
-5 0 -10 -3 -10 -7z"/>
<path d="M4212 1760 c0 -14 2 -19 5 -12 2 6 2 18 0 25 -3 6 -5 1 -5 -13z"/>
<path d="M4930 1776 c0 -2 8 -10 18 -17 15 -13 16 -12 3 4 -13 16 -21 21 -21
13z"/>
<path d="M1955 1749 c-11 -17 1 -21 15 -4 8 9 8 15 2 15 -6 0 -14 -5 -17 -11z"/>
<path d="M4010 1746 c0 -10 28 -13 41 -5 10 6 7 9 -13 9 -16 0 -28 -2 -28 -4z"/>
<path d="M2200 1731 c0 -20 13 -41 21 -35 5 3 7 10 4 15 -4 5 -1 9 5 9 6 0 8
5 5 10 -8 13 -35 13 -35 1z"/>
<path d="M4500 1737 c0 -13 32 -57 42 -57 5 0 4 6 -2 13 -6 6 -17 21 -25 32
-8 11 -15 16 -15 12z"/>
<path d="M5239 1733 c-1 -5 -1 -11 0 -15 0 -5 -8 -9 -19 -9 -25 -2 -29 -3 -60
-17 -22 -10 -20 -11 15 -5 63 9 85 20 79 38 -7 16 -13 20 -15 8z"/>
<path d="M4023 1713 c0 -17 12 -17 27 1 9 12 8 15 -8 13 -10 0 -19 -7 -19 -14z"/>
<path d="M7570 1719 c-19 -5 -45 -15 -57 -21 -21 -10 -66 -8 -153 7 -28 5 -32
4 -17 -5 32 -21 148 -24 210 -6 31 9 59 21 62 26 7 12 2 11 -45 -1z"/>
<path d="M3540 1700 c0 -11 4 -20 9 -20 5 0 7 9 4 20 -3 11 -7 20 -9 20 -2 0
-4 -9 -4 -20z"/>
<path d="M4140 1708 c0 -9 5 -20 11 -23 17 -11 20 0 4 21 -13 17 -14 17 -15 2z"/>
<path d="M5491 1703 c-1 -16 5 -23 17 -23 10 0 13 3 6 8 -6 4 -14 14 -17 22
-4 10 -6 8 -6 -7z"/>
<path d="M828 1699 c7 -9 10 -24 6 -33 -3 -9 -2 -16 4 -16 20 0 20 29 -1 47
-15 13 -18 13 -9 2z"/>
<path d="M1771 1694 c0 -11 3 -14 6 -6 3 7 2 16 -1 19 -3 4 -6 -2 -5 -13z"/>
<path d="M2347 1697 c4 -6 6 -20 4 -31 -1 -11 2 -16 8 -12 16 10 13 43 -5 50
-10 4 -13 2 -7 -7z"/>
<path d="M3367 1703 c-4 -3 -7 -11 -7 -17 0 -6 5 -5 12 2 6 6 9 14 7 17 -3 3
-9 2 -12 -2z"/>
<path d="M3636 1695 c-3 -8 -1 -15 4 -15 6 0 10 7 10 15 0 8 -2 15 -4 15 -2 0
-6 -7 -10 -15z"/>
<path d="M3990 1702 c0 -8 -20 -13 -52 -14 l-53 -2 49 -3 c46 -4 78 8 63 24
-4 3 -7 1 -7 -5z"/>
<path d="M4202 1695 c-11 -13 -10 -15 7 -15 14 0 19 5 15 15 -7 18 -6 18 -22
0z"/>
<path d="M5025 1702 c34 -15 105 -23 105 -12 0 5 -17 10 -37 10 -21 0 -49 3
-63 5 -21 5 -22 4 -5 -3z"/>
<path d="M6440 1699 c0 -5 5 -7 10 -4 6 3 10 8 10 11 0 2 -4 4 -10 4 -5 0 -10
-5 -10 -11z"/>
<path d="M5575 1690 c-3 -5 -1 -10 4 -10 6 0 11 5 11 10 0 6 -2 10 -4 10 -3 0
-8 -4 -11 -10z"/>
<path d="M5965 1690 c-3 -5 1 -10 9 -10 9 0 16 5 16 10 0 6 -4 10 -9 10 -6 0
-13 -4 -16 -10z"/>
<path d="M7130 1690 c-13 -8 -12 -10 3 -10 9 0 17 5 17 10 0 12 -1 12 -20 0z"/>
<path d="M7088 1683 c7 -3 16 -2 19 1 4 3 -2 6 -13 5 -11 0 -14 -3 -6 -6z"/>
<path d="M1865 1660 c-4 -7 3 -8 22 -4 38 9 42 14 10 14 -14 0 -29 -5 -32 -10z"/>
<path d="M2402 1650 c0 -14 2 -19 5 -12 2 6 2 18 0 25 -3 6 -5 1 -5 -13z"/>
<path d="M2077 1645 c-4 -8 -2 -17 3 -20 6 -4 10 3 10 14 0 25 -6 27 -13 6z"/>
<path d="M559 1638 c0 -7 -2 -32 -4 -55 -2 -24 1 -45 6 -49 5 -3 9 21 9 55 0
34 -2 61 -5 61 -3 0 -5 -6 -6 -12z"/>
<path d="M940 1640 c8 -5 20 -10 25 -10 6 0 3 5 -5 10 -8 5 -19 10 -25 10 -5
0 -3 -5 5 -10z"/>
<path d="M1566 1633 c-6 -14 -5 -15 5 -6 7 7 10 15 7 18 -3 3 -9 -2 -12 -12z"/>
<path d="M790 1633 c0 -1 9 -7 20 -13 15 -8 20 -8 20 3 0 7 -9 13 -20 13 -11
0 -20 -1 -20 -3z"/>
<path d="M1056 1625 c4 -8 8 -15 10 -15 2 0 4 7 4 15 0 8 -4 15 -10 15 -5 0
-7 -7 -4 -15z"/>
<path d="M1175 1600 c4 -19 11 -39 15 -44 5 -5 5 8 0 29 -11 47 -25 61 -15 15z"/>
<path d="M466 1607 c3 -10 9 -15 12 -12 3 3 0 11 -7 18 -10 9 -11 8 -5 -6z"/>
<path d="M2181 1602 c-7 -14 0 -27 35 -65 44 -46 64 -57 64 -37 0 6 -5 10 -11
10 -5 0 -7 5 -3 12 4 7 3 8 -4 4 -7 -4 -12 -2 -12 3 0 6 -6 11 -13 11 -23 0
-55 45 -45 64 5 9 7 16 4 16 -3 0 -10 -8 -15 -18z"/>
<path d="M2330 1581 c-7 -15 -7 -21 0 -21 12 0 25 28 17 36 -3 3 -10 -4 -17
-15z"/>
<path d="M2414 1584 c3 -9 6 -18 6 -20 0 -3 5 -2 10 1 6 3 10 -1 10 -9 0 -21
-19 -20 -37 2 -8 9 -12 12 -9 5 4 -6 -2 -14 -11 -16 -15 -4 -15 -5 3 -6 11 0
25 -6 30 -11 15 -15 44 -1 44 20 0 17 -29 50 -44 50 -5 0 -5 -7 -2 -16z"/>
<path d="M1975 1580 c-3 -5 1 -10 9 -10 21 0 20 -6 -5 -41 -11 -16 -19 -35
-16 -42 2 -6 16 11 30 39 14 28 23 54 20 58 -10 9 -31 7 -38 -4z"/>
<path d="M2240 1586 c0 -2 8 -10 18 -17 15 -13 16 -12 3 4 -13 16 -21 21 -21
13z"/>
<path d="M2087 1563 c-10 -10 -8 -51 2 -58 5 -3 11 5 13 17 3 21 3 21 15 -3 6
-13 14 -33 17 -43 4 -10 9 -16 12 -13 3 3 -3 28 -13 56 -16 47 -30 60 -46 44z"/>
<path d="M1936 1525 c-15 -19 -23 -35 -19 -35 4 0 18 16 31 35 29 45 22 45
-12 0z"/>
<path d="M3911 1549 c-21 -8 -22 -12 -16 -73 9 -79 2 -93 -31 -71 -14 9 -47
17 -75 18 -47 2 -53 -1 -88 -39 -31 -33 -39 -50 -45 -95 -9 -69 14 -150 51
-178 33 -27 112 -28 155 -3 28 16 30 16 42 0 7 -10 25 -18 40 -18 l26 0 0 229
c0 211 -1 229 -18 233 -10 3 -28 1 -41 -3z m-39 -206 c14 -13 18 -31 18 -89 0
-66 -2 -74 -26 -93 -33 -26 -74 -27 -103 -3 -16 12 -24 32 -28 74 -7 66 9 115
41 129 28 11 75 3 98 -18z"/>
<path d="M728 1543 c6 -2 18 -2 25 0 6 3 1 5 -13 5 -14 0 -19 -2 -12 -5z"/>
<path d="M3079 1418 c-3 -73 -2 -178 1 -233 l5 -100 35 0 35 0 3 233 2 232
-38 0 -39 0 -4 -132z"/>
<path d="M4087 1544 c-4 -4 -7 -20 -7 -35 0 -21 6 -28 25 -31 34 -7 58 12 53
43 -2 19 -10 25 -33 27 -17 2 -34 0 -38 -4z"/>
<path d="M4718 1530 c-14 -10 -28 -17 -31 -14 -9 9 -49 -57 -49 -81 0 -13 10
-40 22 -60 18 -29 25 -33 36 -24 8 6 24 13 37 14 12 1 26 3 31 4 6 0 -15 13
-45 28 -29 14 -56 28 -58 29 -6 5 51 53 83 70 24 13 35 14 72 4 23 -7 53 -23
65 -36 12 -13 27 -24 32 -24 25 0 -72 70 -110 79 -24 6 -43 14 -43 17 0 3 6 4
14 1 8 -3 27 -2 43 3 24 7 21 8 -23 9 -37 1 -58 -5 -76 -19z"/>
<path d="M5502 1318 c3 -215 4 -223 23 -223 19 0 20 7 20 155 1 142 1 144 -2
25 -4 -152 -19 -188 -22 -53 -1 51 -5 136 -8 189 -5 84 -3 96 11 96 11 0 16
-10 17 -31 2 -28 3 -27 8 9 7 44 -4 69 -19 45 -7 -10 -10 -11 -10 -2 0 6 -5
12 -10 12 -7 0 -9 -76 -8 -222z"/>
<path d="M2334 1522 c-13 -9 -25 -52 -15 -52 12 0 41 35 41 48 0 14 -10 15
-26 4z"/>
<path d="M6135 1510 c-3 -5 1 -10 9 -10 9 0 16 5 16 10 0 6 -4 10 -9 10 -6 0
-13 -4 -16 -10z"/>
<path d="M6316 1495 c4 -8 8 -15 10 -15 2 0 4 7 4 15 0 8 -4 15 -10 15 -5 0
-7 -7 -4 -15z"/>
<path d="M6352 1495 c-11 -12 -10 -15 3 -15 8 0 15 7 15 15 0 18 -2 18 -18 0z"/>
<path d="M1170 1470 c0 -5 5 -10 11 -10 5 0 7 5 4 10 -3 6 -8 10 -11 10 -2 0
-4 -4 -4 -10z"/>
<path d="M1143 1453 c-18 -7 -16 -23 2 -23 8 0 15 7 15 15 0 8 -1 15 -2 14 -2
0 -9 -3 -15 -6z"/>
<path d="M2215 1450 c-8 -13 5 -13 25 0 13 8 13 10 -2 10 -9 0 -20 -4 -23 -10z"/>
<path d="M4930 1450 c0 -6 7 -10 15 -10 8 0 15 2 15 4 0 2 -7 6 -15 10 -8 3
-15 1 -15 -4z"/>
<path d="M411 1430 c-1 -18 16 -46 23 -40 2 3 -2 16 -9 30 -8 15 -14 19 -14
10z"/>
<path d="M855 1430 c-3 -5 1 -10 10 -10 9 0 13 5 10 10 -3 6 -8 10 -10 10 -2
0 -7 -4 -10 -10z"/>
<path d="M2313 1413 c-4 -10 -10 -21 -15 -24 -5 -3 -2 -11 6 -18 10 -8 16 -9
21 -1 3 5 1 10 -5 10 -6 0 -8 5 -5 10 4 6 11 8 16 5 5 -4 9 3 9 14 0 26 -18
28 -27 4z"/>
<path d="M3430 1419 c-72 -20 -82 -21 -104 -9 -13 6 -32 10 -42 8 -17 -3 -19
-16 -22 -147 -4 -182 -2 -193 41 -189 l32 3 5 122 c6 136 12 150 71 159 22 3
41 0 53 -9 18 -13 20 -26 17 -141 l-2 -126 45 0 46 0 0 111 c0 192 -35 247
-140 218z"/>
<path d="M4370 1423 c-19 -2 -45 -6 -57 -8 -24 -6 -58 -59 -48 -75 7 -11 54
-3 70 11 5 5 33 9 62 9 40 0 55 -4 60 -16 11 -30 -12 -48 -81 -61 -76 -14
-112 -33 -128 -68 -15 -33 -2 -91 25 -110 26 -18 115 -20 152 -3 21 10 31 9
55 -5 15 -9 33 -17 39 -17 18 0 15 264 -4 299 -14 28 -61 53 -94 49 -9 0 -32
-3 -51 -5z m84 -217 c-2 -40 -14 -54 -64 -68 -33 -10 -70 15 -70 47 0 28 10
36 65 52 61 17 70 13 69 -31z"/>
<path d="M2248 1413 c7 -3 16 -2 19 1 4 3 -2 6 -13 5 -11 0 -14 -3 -6 -6z"/>
<path d="M4080 1257 l0 -164 32 -7 c17 -3 36 -2 40 2 5 5 7 80 6 168 l-3 159
-37 3 -38 3 0 -164z"/>
<path d="M5197 1413 c-4 -7 -13 -10 -20 -7 -18 7 -95 -69 -103 -101 -9 -37 3
-111 23 -146 23 -39 70 -59 136 -59 73 0 120 27 141 81 17 42 21 114 8 123 -9
5 -12 -10 -12 -54 -1 -37 -19 -2 -22 41 -1 19 -8 40 -14 46 -7 7 -14 17 -16
23 -1 5 -26 15 -55 22 -32 8 -54 19 -55 28 -3 11 -6 12 -11 3z m-17 -37 c0 -2
-7 -7 -16 -10 -8 -3 -12 -2 -9 4 6 10 25 14 25 6z m88 -7 c48 -17 66 -53 66
-134 0 -49 -4 -70 -12 -70 -7 0 -16 -6 -21 -13 -5 -8 -12 -14 -17 -13 -5 0
-19 -2 -32 -6 -27 -6 -108 16 -110 31 -1 6 -4 41 -8 77 l-6 66 36 36 c39 39
55 43 104 26z m-145 -44 c-21 -28 -30 -31 -30 -10 0 8 4 12 8 10 3 -3 12 2 19
10 20 24 22 17 3 -10z m-13 -97 c0 -21 -4 -38 -9 -38 -12 0 -23 63 -15 84 10
26 24 -1 24 -46z"/>
<path d="M6325 1414 c-7 -3 -9 -61 -8 -162 3 -155 3 -157 26 -157 22 0 22 2
25 149 1 82 -1 153 -5 157 -5 4 -8 -55 -8 -132 0 -100 -4 -144 -12 -151 -10
-8 -12 23 -10 146 1 86 2 156 2 155 0 0 -5 -3 -10 -5z"/>
<path d="M7039 1409 c-9 -6 -2 -9 24 -9 20 0 37 3 37 8 0 10 -45 11 -61 1z"/>
<path d="M909 1382 c-3 -20 -2 -29 4 -23 5 5 7 19 5 32 -3 20 -5 19 -9 -9z"/>
<path d="M5946 1393 c-6 -14 -5 -15 5 -6 7 7 10 15 7 18 -3 3 -9 -2 -12 -12z"/>
<path d="M6544 1385 c-15 -14 -22 -25 -16 -25 6 0 15 7 20 16 5 9 15 15 21 13
8 -3 4 -14 -12 -31 -19 -20 -28 -23 -42 -15 -15 8 -17 7 -12 -6 4 -10 2 -16
-6 -14 -23 4 -21 -107 3 -152 27 -53 63 -71 144 -71 55 0 69 4 97 27 53 45 75
131 49 198 -8 22 -13 24 -29 15 -26 -13 -34 -13 -25 2 4 6 3 8 -4 4 -6 -3 -17
3 -25 14 -10 15 -30 22 -68 27 -39 5 -48 8 -34 14 17 6 16 8 -7 8 -16 1 -38
-9 -54 -24z m121 -15 c8 0 30 -16 50 -35 28 -29 35 -43 35 -76 0 -22 -8 -54
-17 -72 -9 -18 -17 -34 -16 -37 1 -3 -6 -6 -15 -7 -9 -1 -32 -5 -50 -9 -25 -5
-40 -1 -67 17 -43 30 -59 67 -52 120 8 58 67 116 105 103 8 -2 20 -4 27 -4z
m-151 -85 c-6 -16 -24 -21 -24 -7 0 11 11 22 21 22 5 0 6 -7 3 -15z m276 -30
c0 -22 -31 -95 -40 -95 -5 0 -4 15 1 33 4 17 11 45 14 60 6 28 25 29 25 2z
m-270 -52 c0 -7 -4 -13 -10 -13 -5 0 -10 12 -10 28 0 21 2 24 10 12 5 -8 10
-21 10 -27z"/>
<path d="M817 1382 c-19 -20 -23 -37 -7 -27 10 6 33 45 27 45 -2 0 -11 -8 -20
-18z"/>
<path d="M6207 1393 c-4 -3 -7 -11 -7 -17 0 -6 5 -5 12 2 6 6 9 14 7 17 -3 3
-9 2 -12 -2z"/>
<path d="M1175 1370 c10 -11 20 -18 23 -16 5 6 -23 36 -34 36 -4 0 1 -9 11
-20z"/>
<path d="M7070 1380 c0 -5 8 -10 19 -10 34 0 40 -23 43 -151 l3 -124 25 0 24
0 -3 140 c-1 77 -7 144 -12 150 -6 5 -9 4 -9 -5 0 -13 -2 -13 -10 0 -6 9 -10
10 -10 3 0 -8 -9 -9 -32 -2 -40 11 -38 11 -38 -1z m96 -257 c-13 -33 -19 1
-18 99 1 138 3 141 14 20 5 -57 7 -111 4 -119z"/>
<path d="M992 1355 c0 -16 2 -22 5 -12 2 9 2 23 0 30 -3 6 -5 -1 -5 -18z"/>
<path d="M2172 1360 c-12 -12 -22 -31 -21 -43 0 -21 1 -21 10 3 6 13 17 33 26
42 22 24 12 23 -15 -2z"/>
<path d="M5732 1360 c0 -14 2 -19 5 -12 2 6 2 18 0 25 -3 6 -5 1 -5 -13z"/>
<path d="M4830 1350 c8 -5 22 -9 30 -9 10 0 8 3 -5 9 -27 12 -43 12 -25 0z"/>
<path d="M5948 1238 c-2 -92 -6 -122 -15 -121 -7 2 -13 -2 -13 -7 0 -5 9 -10
20 -10 19 0 20 7 20 130 0 72 -2 130 -5 130 -2 0 -6 -55 -7 -122z"/>
<path d="M6091 1344 c0 -11 3 -14 6 -6 3 7 2 16 -1 19 -3 4 -6 -2 -5 -13z"/>
<path d="M1969 1333 c-13 -16 -12 -17 4 -4 9 7 17 15 17 17 0 8 -8 3 -21 -13z"/>
<path d="M6902 1330 c0 -14 2 -19 5 -12 2 6 2 18 0 25 -3 6 -5 1 -5 -13z"/>
<path d="M650 1330 c0 -5 5 -10 11 -10 5 0 7 5 4 10 -3 6 -8 10 -11 10 -2 0
-4 -4 -4 -10z"/>
<path d="M769 1323 c-13 -16 -12 -17 4 -4 9 7 17 15 17 17 0 8 -8 3 -21 -13z"/>
<path d="M4720 1331 c0 -9 30 -24 36 -18 2 1 -6 8 -16 15 -11 7 -20 8 -20 3z"/>
<path d="M1089 1272 c5 -34 6 -35 9 -8 2 16 0 32 -5 37 -5 5 -7 -7 -4 -29z"/>
<path d="M4798 1303 c7 -3 16 -2 19 1 4 3 -2 6 -13 5 -11 0 -14 -3 -6 -6z"/>
<path d="M4934 1301 c9 -14 -22 -21 -50 -11 -14 6 -33 10 -42 9 -9 0 -1 -5 18
-11 40 -11 70 -35 70 -55 0 -27 -29 -69 -55 -81 -14 -7 -50 -12 -80 -12 -47 0
-56 4 -78 30 -14 16 -27 34 -29 39 -4 15 -68 26 -68 13 0 -18 65 -96 90 -109
36 -18 164 -16 201 3 52 27 80 142 43 178 -17 17 -28 21 -20 7z m-251 -117
c11 -14 17 -28 14 -30 -6 -6 -47 36 -47 48 0 15 15 7 33 -18z m236 -24 c-31
-28 -34 -25 -7 8 13 16 25 25 26 20 2 -5 -6 -18 -19 -28z"/>
<path d="M1665 1270 c3 -5 11 -10 16 -10 6 0 7 5 4 10 -3 6 -11 10 -16 10 -6
0 -7 -4 -4 -10z"/>
<path d="M6950 1235 c-3 -47 -4 -62 -8 -107 -3 -26 -22 -22 -23 5 l0 22 -12
-23 c-12 -26 2 -42 38 -42 18 0 20 6 17 67 -4 106 -8 134 -12 78z"/>
<path d="M5683 1235 c0 -22 2 -30 4 -17 2 12 2 30 0 40 -3 9 -5 -1 -4 -23z"/>
<path d="M1470 1200 c0 -5 5 -10 10 -10 6 0 10 5 10 10 0 6 -4 10 -10 10 -5 0
-10 -4 -10 -10z"/>
<path d="M5731 1174 c0 -11 3 -14 6 -6 3 7 2 16 -1 19 -3 4 -6 -2 -5 -13z"/>
<path d="M1711 1164 c0 -11 3 -14 6 -6 3 7 2 16 -1 19 -3 4 -6 -2 -5 -13z"/>
<path d="M590 1155 c-10 -12 -10 -15 3 -15 8 0 20 7 27 15 10 12 10 15 -3 15
-8 0 -20 -7 -27 -15z"/>
<path d="M5691 1153 c-1 -7 8 -22 19 -33 27 -27 125 -28 158 -1 27 24 28 31 2
24 -11 -3 -20 -13 -20 -22 0 -12 -2 -13 -8 -3 -5 7 -16 10 -25 6 -9 -3 -29 1
-45 8 -29 15 -56 13 -46 -3 3 -5 1 -9 -4 -9 -5 0 -14 10 -20 23 -6 12 -11 16
-11 10z"/>
<path d="M1675 1140 c3 -5 8 -10 11 -10 2 0 4 5 4 10 0 6 -5 10 -11 10 -5 0
-7 -4 -4 -10z"/>
<path d="M6190 1125 c-8 -10 -17 -12 -24 -6 -7 6 -16 4 -24 -5 -11 -12 -6 -14
33 -14 38 0 45 3 45 20 0 24 -13 26 -30 5z"/>
<path d="M1340 1120 c-8 -5 -11 -12 -7 -16 4 -4 15 0 24 9 18 18 8 23 -17 7z"/>
<path d="M1532 1100 c0 -14 2 -19 5 -12 2 6 2 18 0 25 -3 6 -5 1 -5 -13z"/>
<path d="M1937 1103 c-2 -4 7 -23 20 -42 28 -41 30 -34 4 15 -11 19 -21 32
-24 27z"/>
<path d="M1809 1083 c-13 -16 -12 -17 4 -4 16 13 21 21 13 21 -2 0 -10 -8 -17
-17z"/>
<path d="M760 1069 c0 -40 64 -56 91 -22 13 15 12 15 -8 5 -15 -8 -24 -9 -28
-1 -4 5 -12 8 -18 6 -7 -2 -17 5 -24 17 -12 20 -12 20 -13 -5z"/>
<path d="M1521 1047 c19 -15 79 -47 79 -43 0 8 -62 46 -74 46 -5 0 -7 -1 -5
-3z"/>
<path d="M1471 1033 c0 -6 -4 -20 -7 -30 -5 -14 -4 -15 5 -7 7 7 11 20 8 30
-3 11 -5 14 -6 7z"/>
<path d="M2043 1000 c0 -35 7 -37 30 -12 13 14 14 21 5 30 -21 21 -35 13 -35
-18z"/>
<path d="M1625 1000 c-3 -5 1 -10 10 -10 9 0 13 5 10 10 -3 6 -8 10 -10 10 -2
0 -7 -4 -10 -10z"/>
<path d="M2005 991 c-3 -5 -1 -12 4 -15 5 -3 11 1 15 9 6 16 -9 21 -19 6z"/>
<path d="M2010 931 c0 -42 15 -46 16 -5 0 19 -3 34 -8 34 -4 0 -8 -13 -8 -29z"/>
<path d="M1980 935 c0 -8 2 -15 4 -15 2 0 6 7 10 15 3 8 1 15 -4 15 -6 0 -10
-7 -10 -15z"/>
<path d="M1416 913 c-6 -14 -5 -15 5 -6 7 7 10 15 7 18 -3 3 -9 -2 -12 -12z"/>
<path d="M1578 913 c7 -3 16 -2 19 1 4 3 -2 6 -13 5 -11 0 -14 -3 -6 -6z"/>
<path d="M1661 863 c0 -5 4 -17 9 -28 8 -18 9 -17 9 8 1 15 -3 27 -9 27 -5 0
-10 -3 -9 -7z"/>
<path d="M7045 857 c-11 -9 -21 -35 -27 -73 -12 -75 -12 -74 -10 -166 2 -70 4
-78 21 -78 17 0 20 9 25 78 6 100 6 89 0 150 -5 39 -2 59 10 77 18 27 10 32
-19 12z"/>
<path d="M2023 841 c5 -32 24 -48 39 -33 15 15 0 45 -26 50 -11 3 -15 -2 -13
-17z"/>
<path d="M6548 793 l-3 -68 -39 3 c-70 6 -106 -33 -106 -113 0 -64 35 -83 143
-77 l37 2 0 160 c0 133 -2 160 -15 160 -11 0 -15 -16 -17 -67z m-11 -110 c15
-36 8 -93 -13 -113 -17 -18 -25 -19 -50 -10 -36 14 -44 26 -44 68 0 54 15 72
61 72 28 0 42 -5 46 -17z"/>
<path d="M7399 815 c-1 -27 -3 -62 -2 -77 1 -28 -19 -39 -32 -18 -9 14 -67 12
-86 -3 -45 -34 -52 -115 -15 -160 22 -27 25 -28 85 -21 76 8 76 7 63 190 -5
87 -10 120 -13 89z m-13 -150 c7 -40 -2 -86 -19 -97 -24 -15 -76 -9 -87 11
-14 27 -13 94 2 109 7 7 31 12 55 12 40 0 42 -2 49 -35z"/>
<path d="M1640 845 c0 -5 5 -17 10 -25 5 -8 10 -10 10 -5 0 6 -5 17 -10 25 -5
8 -10 11 -10 5z"/>
<path d="M5947 838 c-2 -7 -2 -37 1 -67 l5 -54 -29 7 c-16 4 -36 9 -45 12 -9
2 -31 -7 -48 -22 -29 -24 -31 -31 -31 -89 0 -83 27 -102 124 -89 l46 7 0 153
c0 87 -4 154 -9 154 -5 0 -11 -6 -14 -12z m-26 -148 c29 -16 27 -89 -4 -118
-21 -19 -28 -21 -55 -11 -24 8 -32 17 -34 37 -2 44 3 76 14 89 13 16 52 17 79
3z"/>
<path d="M8517 844 c-4 -4 -7 -74 -7 -156 0 -141 1 -148 20 -148 18 0 20 7 20
64 0 86 5 96 46 96 42 0 54 -24 54 -106 0 -30 5 -54 10 -54 17 0 12 142 -6
169 -15 21 -22 23 -66 17 l-50 -7 3 62 c4 58 -5 81 -24 63z"/>
<path d="M1744 825 c-3 -8 3 -29 15 -47 11 -18 21 -27 21 -20 0 7 -7 20 -15
28 -11 12 -12 20 -5 35 8 13 7 19 0 19 -6 0 -13 -7 -16 -15z"/>
<path d="M1870 815 c13 -14 26 -25 28 -25 3 0 -5 11 -18 25 -13 14 -26 25 -28
25 -3 0 5 -11 18 -25z"/>
<path d="M3110 691 c0 -145 7 -178 31 -154 5 5 10 71 10 146 1 100 4 137 14
140 21 9 59 -17 70 -47 9 -25 6 -31 -20 -52 -23 -18 -29 -30 -27 -51 5 -34 32
-80 66 -112 35 -33 33 -14 -4 35 -36 48 -37 64 -4 114 29 44 28 71 -6 108 -17
18 -32 22 -75 22 l-55 0 0 -149z"/>
<path d="M1490 809 c0 -6 -7 -8 -16 -5 -9 3 -12 2 -9 -5 4 -5 15 -7 26 -4 12
4 19 2 19 -6 0 -7 2 -10 5 -7 8 7 -5 38 -16 38 -5 0 -9 -5 -9 -11z"/>
<path d="M1640 780 c-6 -11 -8 -20 -6 -20 3 0 10 9 16 20 6 11 8 20 6 20 -3 0
-10 -9 -16 -20z"/>
<path d="M1955 770 c-10 -11 -14 -20 -9 -20 5 0 15 9 22 20 7 11 11 20 9 20
-2 0 -12 -9 -22 -20z"/>
<path d="M8412 762 c-7 -59 7 -222 19 -222 5 0 9 31 9 68 0 37 5 73 11 79 8 8
7 23 -6 57 -20 53 -29 57 -33 18z"/>
<path d="M5257 774 c-4 -4 -7 -15 -7 -25 0 -10 -8 -22 -17 -27 -16 -9 -16 -11
0 -27 12 -12 17 -34 17 -80 0 -35 5 -67 10 -70 6 -3 10 -2 10 2 0 5 5 45 10
90 8 63 8 89 -2 113 -7 17 -16 28 -21 24z"/>
<path d="M1872 744 c-15 -10 -32 -14 -48 -10 -17 5 -23 3 -19 -4 3 -5 12 -10
20 -10 8 0 17 -5 21 -12 5 -7 3 -8 -6 -3 -9 5 -11 4 -6 -3 4 -7 2 -12 -5 -12
-7 0 -10 -3 -7 -6 9 -8 48 15 48 28 0 6 7 20 17 30 20 22 15 23 -15 2z"/>
<path d="M1935 730 c3 -6 -1 -7 -9 -4 -24 9 -20 -33 3 -46 27 -14 31 -13 31 9
0 27 -10 51 -22 51 -5 0 -6 -4 -3 -10z"/>
<path d="M3682 722 c-17 -13 -23 -26 -20 -47 3 -26 23 -45 76 -71 17 -8 15
-29 -4 -49 -15 -15 -19 -14 -45 11 -30 28 -33 26 -23 -14 6 -20 12 -23 48 -20
34 2 42 7 50 30 14 40 -7 84 -42 83 -22 0 -28 5 -30 28 -4 35 21 46 48 22 17
-15 20 -16 20 -3 0 9 -11 23 -25 32 -29 19 -25 19 -53 -2z"/>
<path d="M4890 729 c-8 -5 -27 -9 -42 -9 -34 0 -40 -20 -36 -110 2 -39 8 -65
16 -68 8 -3 12 12 12 52 0 69 14 106 39 106 21 0 47 25 34 33 -5 3 -15 2 -23
-4z"/>
<path d="M1460 718 c0 -9 5 -20 10 -23 13 -8 13 5 0 25 -8 13 -10 13 -10 -2z"/>
<path d="M3358 713 c-33 -20 -41 -52 -30 -113 10 -56 40 -75 107 -64 59 8 69
27 60 108 l-6 62 -45 12 c-55 15 -53 15 -86 -5z m101 -46 c16 -43 13 -69 -9
-95 -16 -19 -26 -22 -49 -17 -37 8 -50 24 -58 68 -12 76 92 116 116 44z"/>
<path d="M3874 720 c-33 -13 -54 -50 -54 -95 0 -50 27 -80 82 -90 29 -6 40 -3
57 14 33 33 25 45 -14 21 -29 -18 -38 -19 -57 -9 -27 14 -38 28 -38 49 0 12
14 15 61 16 41 1 64 6 70 15 13 22 11 28 -20 60 -30 30 -50 34 -87 19z m61
-30 c22 -24 13 -37 -33 -46 -42 -9 -56 20 -23 48 29 23 34 23 56 -2z"/>
<path d="M4363 695 c-32 -32 -35 -40 -30 -77 7 -56 34 -80 96 -86 l50 -4 30
48 c17 26 31 54 31 61 0 7 -16 31 -36 53 -49 54 -91 55 -141 5z m134 -34 c20
-30 22 -37 10 -55 -8 -11 -25 -29 -39 -39 -22 -17 -31 -18 -61 -8 -38 13 -47
26 -47 74 0 46 26 69 74 65 33 -2 44 -9 63 -37z"/>
<path d="M5082 718 c-16 -16 -15 -44 4 -73 15 -23 44 -25 44 -3 0 6 -7 8 -15
5 -19 -8 -28 8 -20 33 5 16 15 20 48 20 39 1 41 2 23 15 -24 18 -68 19 -84 3z"/>
<path d="M5361 701 c-25 -23 -31 -37 -31 -71 0 -34 6 -47 33 -71 30 -28 35
-30 87 -24 30 4 56 8 58 10 2 2 6 37 9 78 l6 76 -38 15 c-56 24 -88 20 -124
-13z m119 -20 c12 -23 13 -81 2 -97 -9 -13 -46 -34 -62 -34 -6 0 -22 11 -35
25 -29 28 -34 85 -9 109 23 23 91 21 104 -3z"/>
<path d="M5623 723 c-42 -5 -50 -23 -48 -108 1 -55 4 -71 17 -73 12 -2 17 12
24 75 10 83 17 92 70 79 22 -6 24 -11 24 -70 0 -43 5 -67 14 -75 12 -11 15 -2
15 58 0 55 -4 75 -20 95 -20 26 -28 27 -96 19z"/>
<path d="M6061 711 c-20 -15 -25 -30 -29 -78 -4 -56 -2 -61 24 -82 24 -19 37
-22 77 -17 26 3 52 8 57 11 6 3 10 41 10 85 l0 78 -31 11 c-46 16 -81 13 -108
-8z m97 -29 c19 -25 15 -96 -7 -116 -17 -15 -25 -16 -55 -6 -33 11 -36 15 -36
51 0 40 14 78 33 90 14 10 50 -1 65 -19z"/>
<path d="M6318 723 c-43 -5 -48 -20 -44 -117 4 -82 26 -88 26 -8 0 59 1 61 43
96 23 20 35 35 27 34 -8 -1 -32 -3 -52 -5z"/>
<path d="M6789 701 c-41 -42 -41 -102 1 -141 55 -52 108 -43 150 24 16 27 18
38 9 69 -21 77 -105 102 -160 48z m126 -24 c24 -35 19 -72 -16 -101 -38 -32
-44 -32 -86 0 -38 29 -43 59 -13 97 32 40 88 42 115 4z"/>
<path d="M7514 710 c-60 -39 -54 -134 11 -164 48 -23 78 -20 107 12 43 46 50
67 35 104 -18 44 -38 59 -84 64 -27 4 -47 -1 -69 -16z m119 -39 c9 -16 17 -37
17 -46 0 -22 -57 -75 -80 -75 -52 0 -90 91 -55 130 13 14 31 20 59 20 35 0 44
-4 59 -29z"/>
<path d="M7730 636 c0 -57 4 -96 10 -96 6 0 10 36 10 89 0 50 -4 93 -10 96 -6
4 -10 -28 -10 -89z"/>
<path d="M7875 723 c-40 -6 -45 -16 -45 -100 0 -91 15 -103 23 -18 7 75 20
105 45 105 40 0 53 -22 55 -95 2 -55 5 -70 17 -70 12 0 16 15 18 67 3 62 1 68
-25 92 -15 14 -35 25 -43 25 -8 -1 -28 -4 -45 -6z"/>
<path d="M8070 702 c-24 -25 -30 -39 -30 -75 0 -72 60 -120 115 -91 22 11 30
12 36 2 8 -13 -7 -48 -25 -60 -16 -11 -74 -10 -81 2 -8 13 -25 13 -25 1 0 -20
33 -41 64 -41 23 0 41 9 61 30 28 29 30 36 33 134 5 115 8 109 -71 121 -43 7
-49 5 -77 -23z m108 -14 c21 -21 15 -95 -10 -118 -24 -22 -36 -24 -71 -11 -30
11 -40 54 -26 105 9 34 12 36 52 36 24 0 48 -5 55 -12z"/>
<path d="M8885 721 l-30 -6 -3 -88 c-3 -103 14 -119 20 -17 4 84 22 109 65 94
27 -9 28 -13 31 -79 5 -120 40 -122 41 -2 1 50 -2 61 -25 82 -27 25 -44 28
-99 16z"/>
<path d="M9105 719 c-35 -20 -45 -41 -45 -94 0 -54 9 -69 58 -94 19 -10 28 -9
48 4 13 9 29 13 35 9 13 -8 2 -56 -14 -66 -21 -14 -80 -8 -99 9 -25 23 -23 -2
3 -28 27 -27 83 -19 119 17 23 22 25 33 28 128 l4 103 -31 7 c-76 15 -87 16
-106 5z m90 -31 c16 -15 12 -107 -5 -118 -28 -19 -61 -23 -87 -11 -24 11 -25
15 -21 68 6 66 24 85 72 76 17 -3 36 -10 41 -15z"/>
<path d="M9312 718 c-18 -18 -15 -69 6 -84 25 -20 38 -17 19 4 -36 39 -8 90
34 64 27 -17 31 -15 19 8 -12 23 -59 27 -78 8z"/>
<path d="M1636 707 c3 -10 9 -15 12 -12 3 3 0 11 -7 18 -10 9 -11 8 -5 -6z"/>
<path d="M3565 697 c-3 -12 -5 -52 -3 -87 2 -50 7 -65 18 -65 12 0 16 18 18
88 2 72 0 87 -12 87 -9 0 -18 -10 -21 -23z"/>
<path d="M4160 709 c0 -5 11 -45 25 -87 24 -74 24 -81 10 -127 -14 -50 -13
-67 5 -49 17 17 91 238 87 259 -3 15 -7 11 -21 -20 -33 -79 -52 -94 -61 -51
-3 14 -7 37 -10 50 -5 23 -35 45 -35 25z"/>
<path d="M4583 705 c-10 -28 3 -119 21 -147 15 -23 26 -28 57 -28 57 0 75 23
82 105 7 68 4 85 -14 85 -5 0 -9 -28 -9 -63 0 -96 -41 -136 -90 -87 -18 18
-20 28 -14 85 6 57 5 65 -10 65 -9 0 -19 -7 -23 -15z"/>
<path d="M8745 691 c-8 -39 3 -151 16 -151 12 0 12 151 0 169 -6 10 -11 5 -16
-18z"/>
<path d="M1655 670 c6 -10 -31 -24 -43 -16 -5 3 -9 -1 -9 -8 0 -18 44 -17 51
0 4 9 22 14 52 14 26 0 45 3 41 6 -9 9 -98 13 -92 4z"/>
<path d="M1760 644 c0 -18 28 -37 45 -30 8 3 15 14 15 25 0 16 -6 20 -30 18
-16 -1 -30 -7 -30 -13z"/>
<path d="M9360 641 c0 -6 5 -13 10 -16 17 -10 11 -63 -7 -74 -14 -7 -23 -5
-39 10 -25 24 -43 9 -18 -15 18 -19 65 -21 82 -4 22 22 11 108 -14 108 -8 0
-14 -4 -14 -9z"/>
<path d="M5155 607 c9 -45 -10 -61 -54 -46 -33 12 -48 8 -37 -9 10 -17 58 -23
87 -12 34 15 44 39 28 74 -17 37 -31 32 -24 -7z"/>
<path d="M2738 574 c-15 -8 -32 -23 -38 -34 -13 -24 -13 -80 0 -80 6 0 10 11
10 25 0 39 20 71 53 88 18 9 25 16 17 16 -8 0 -27 -6 -42 -15z"/>
</g>
</svg>
